<?xml version="1.0" encoding="UTF-8"?>
<svg id="Calque_1" data-name="Calque 1" xmlns="http://www.w3.org/2000/svg" viewBox="0 0 404.53 438.47">
  <defs>
    <style>
      .cls-1{font-size:51.03px;font-family:Roboto-Medium, Roboto;font-weight:500;}.cls-1,.cls-4,.cls-7{fill:#2c2827;}.cls-2{fill:none;stroke-miterlimit:8;stroke-width:6.41px;}.cls-2,.cls-7{stroke:#2c2827;}.cls-3{font-size:336.95px;fill:#f8ce00;}.cls-3,.cls-4{font-family:Roboto-Regular, Roboto;}.cls-4{font-size:74.48px;letter-spacing:0.01em;}.cls-5{letter-spacing:0em;}.cls-6{letter-spacing:0.01em;}.cls-7{stroke-miterlimit:10;stroke-width:3px;}
    </style>
  </defs>
  <text class="cls-1" transform="translate(284.24 282.32) scale(1.01 1)"> </text>
  <text class="cls-1" transform="translate(227.95 362.35) scale(1.01 1)"> </text>
  <path class="cls-2" d="M636.2,405.93" transform="translate(-246.2 -57.33)"/>
  <path class="cls-2" d="M649.3,405.93" transform="translate(-246.2 -57.33)"/>
  <path class="cls-2" d="M395.82,407.11h-93.3a21.35,21.35,0,0,1-21.28-21.28V167.91a21.34,21.34,0,0,1,21.28-21.28H520.44a21.33,21.33,0,0,1,21.28,21.28v59.16" transform="translate(-246.2 -57.33)"/>
  <text class="cls-3" transform="matrix(-0.82, -0.6, 0.59, -0.81, 350.67, 205.69)">D</text>
  <text class="cls-4" transform="translate(231.91 422.83) rotate(-53.77) scale(0.98 1)">Display</text>
  <path class="cls-7" d="M323.28,333.43l73.31-99.69s2.61-4.19,6.45-3.84a19.27,19.27,0,0,1,3.63.37s.61-.08,3.38,3.25L441,274.18s2,2.83,2.26,4.69c0,0-.46,3.83-3.44,3.88H402.5a3.32,3.32,0,0,1-3.2-3.21s-.85-2.58,2.38-3.24,33.08-.05,33.08-.05l-28.6-38.65-73.62,99.45s-1.67,3.22-7.14,2.66a14.35,14.35,0,0,1-3.51-1.49S319.61,336.91,323.28,333.43Z" transform="translate(-246.2 -57.33)"/>
  <path class="cls-7" d="M420.61,219.53s14.51-8,23.48-9.28c0,0,13.17-2.39,22.39,1.4,0,0,14.08,4.37,17.73,18.23,3.37,12.82.61,23.44-1.24,27.84-.52,1.24-2.89,5.29-11.64,18.9a.34.34,0,0,0-.08.09c-1.54,2.08-11.94,16.22-19.77,25.09L428,330.94a1.65,1.65,0,0,0,.89,2.83l53.15.67s3.69-.2,6.28-.12c1.33,0,1.92,3.77,1.21,5.81a2.86,2.86,0,0,1-2.65,1.55H420.25a2.27,2.27,0,0,1-2.28-2.31c0-1.17,0-2.88-.05-5.28v0c0-.19.28-4.57,2-7.26l34.46-45.68h0c.21-.24,13.37-15.52,16.15-24,0,0,5.72-13.11,2.38-23.94a20.42,20.42,0,0,0-14.65-13.55h0c-.34-.06-11.88-2.1-19.65,1.44,0,0-8.44,3.65-11.78,5.73l-4.43,2.49s-2.81,1.41-3.65-2.88l-.51-4a.37.37,0,0,1,0-.18A6.24,6.24,0,0,1,420.61,219.53Z" transform="translate(-246.2 -57.33)"/>
</svg>